<svg width="26" height="31" viewBox="0 0 26 31" fill="none" xmlns="http://www.w3.org/2000/svg">
<path d="M11.0002 18.1663V20.833C8.87843 20.833 6.8436 21.6759 5.34331 23.1762C3.84302 24.6764 3.00016 26.7113 3.00016 28.833H0.333496C0.333496 26.004 1.4573 23.2909 3.45769 21.2905C5.45808 19.2901 8.17119 18.1663 11.0002 18.1663ZM11.0002 16.833C6.58016 16.833 3.00016 13.253 3.00016 8.83301C3.00016 4.41301 6.58016 0.833008 11.0002 0.833008C15.4202 0.833008 19.0002 4.41301 19.0002 8.83301C19.0002 13.253 15.4202 16.833 11.0002 16.833ZM11.0002 14.1663C13.9468 14.1663 16.3335 11.7797 16.3335 8.83301C16.3335 5.88634 13.9468 3.49967 11.0002 3.49967C8.0535 3.49967 5.66683 5.88634 5.66683 8.83301C5.66683 11.7797 8.0535 14.1663 11.0002 14.1663ZM19.0002 28.1663L15.0815 30.2263L15.8295 25.8637L12.6602 22.773L17.0415 22.1357L19.0002 18.1663L20.9602 22.1357L25.3402 22.773L22.1708 25.8637L22.9175 30.2263L19.0002 28.1663Z" fill="#959595"/>
</svg>
