<svg width="32" height="32" viewBox="0 0 32 32" fill="none" xmlns="http://www.w3.org/2000/svg">
<path d="M16 20C18.7614 20 21 17.7614 21 15C21 12.2386 18.7614 10 16 10C13.2386 10 11 12.2386 11 15C11 17.7614 13.2386 20 16 20Z" stroke="#E60000" stroke-width="2" stroke-miterlimit="10"/>
<path d="M7.9751 24.9218C8.72836 23.4408 9.87675 22.1971 11.2931 21.3284C12.7095 20.4598 14.3387 20 16.0002 20C17.6617 20 19.2909 20.4598 20.7073 21.3284C22.1237 22.1971 23.272 23.4407 24.0253 24.9217" stroke="#E60000" stroke-width="2" stroke-linecap="round" stroke-linejoin="round"/>
<path d="M22 7H28" stroke="#E60000" stroke-width="2" stroke-linecap="round" stroke-linejoin="round"/>
<path d="M25 4V10" stroke="#E60000" stroke-width="2" stroke-linecap="round" stroke-linejoin="round"/>
<path d="M27.8517 14.1072C28.2489 16.6079 27.8442 19.1702 26.6954 21.4267C25.5466 23.6831 23.7129 25.5179 21.4571 26.6679C19.2012 27.818 16.6392 28.2242 14.1383 27.8284C11.6374 27.4325 9.32601 26.255 7.53558 24.4646C5.74516 22.6741 4.56762 20.3628 4.1718 17.8618C3.77599 15.3609 4.18222 12.7989 5.33226 10.5431C6.48229 8.28727 8.31707 6.45353 10.5735 5.30477C12.83 4.15601 15.3922 3.75122 17.8929 4.14845" stroke="#E60000" stroke-width="2" stroke-linecap="round" stroke-linejoin="round"/>
</svg>
