<svg width="6" height="7" viewBox="0 0 6 7" fill="none" xmlns="http://www.w3.org/2000/svg">
<path d="M3.00822 6.5C2.47123 6.5 1.9726 6.37151 1.51233 6.11453C1.05205 5.84637 0.684931 5.48324 0.410959 5.02514C0.136986 4.55587 0 4.04749 0 3.5C0 2.98603 0.131507 2.5 0.394521 2.0419C0.657534 1.57263 1.01918 1.19832 1.47945 0.918995C1.93973 0.639665 2.44932 0.5 3.00822 0.5C3.53425 0.5 4.0274 0.634079 4.48767 0.902235C4.94794 1.15922 5.31507 1.51676 5.58904 1.97486C5.86301 2.43296 6 2.94134 6 3.5C6 4.04749 5.86301 4.55028 5.58904 5.00838C5.32603 5.46648 4.96438 5.82961 4.50411 6.09777C4.04384 6.36592 3.54521 6.5 3.00822 6.5Z" fill="#D5D5D5"/>
</svg>
