<svg width="14" height="15" viewBox="0 0 14 15" fill="none" xmlns="http://www.w3.org/2000/svg">
<path d="M6.99992 0.833008C3.33325 0.833008 0.333252 3.83301 0.333252 7.49967C0.333252 11.1663 3.33325 14.1663 6.99992 14.1663C10.6666 14.1663 13.6666 11.1663 13.6666 7.49967C13.6666 3.83301 10.6666 0.833008 6.99992 0.833008ZM9.79992 6.36634L6.59992 9.56634C6.33325 9.83301 5.93325 9.83301 5.66659 9.56634L4.19992 8.09967C3.93325 7.83301 3.93325 7.43301 4.19992 7.16634C4.46659 6.89967 4.86659 6.89967 5.13325 7.16634L6.13325 8.16634L8.86659 5.43301C9.13325 5.16634 9.53325 5.16634 9.79992 5.43301C10.0666 5.69967 10.0666 6.09967 9.79992 6.36634Z" fill="#0FC221"/>
</svg>
