<svg width="22" height="22" viewBox="0 0 22 22" fill="none" xmlns="http://www.w3.org/2000/svg">
<path d="M9.93994 5.08019C10.2907 5.02642 10.6451 4.99967 10.9999 5.00019C14.1799 5.00019 17.1699 7.29018 18.9099 11.0002C18.6438 11.5648 18.3433 12.1125 18.0099 12.6402C17.9041 12.804 17.8485 12.9952 17.8499 13.1902C17.8522 13.4084 17.9257 13.6199 18.0594 13.7925C18.1931 13.965 18.3795 14.089 18.5903 14.1457C18.8011 14.2024 19.0246 14.1885 19.2267 14.1063C19.4289 14.024 19.5986 13.8779 19.7099 13.6902C20.1759 12.9581 20.5806 12.1888 20.9199 11.3902C20.9736 11.2654 21.0013 11.131 21.0013 10.9952C21.0013 10.8594 20.9736 10.725 20.9199 10.6002C18.8999 5.91019 15.0999 3.00019 10.9999 3.00019C10.5306 2.99782 10.062 3.03798 9.59994 3.12019C9.46862 3.14251 9.34298 3.19048 9.2302 3.26136C9.11742 3.33224 9.0197 3.42464 8.94263 3.53329C8.86555 3.64193 8.81063 3.76469 8.78101 3.89456C8.75138 4.02443 8.74762 4.15886 8.76994 4.29019C8.79227 4.42151 8.84024 4.54715 8.91112 4.65993C8.982 4.77271 9.0744 4.87043 9.18304 4.9475C9.29169 5.02457 9.41445 5.07949 9.54432 5.10912C9.67419 5.13875 9.80862 5.14251 9.93994 5.12019V5.08019ZM2.70994 1.29019C2.6167 1.19695 2.50601 1.12299 2.38419 1.07253C2.26237 1.02207 2.1318 0.996094 1.99994 0.996094C1.86808 0.996094 1.73751 1.02207 1.61569 1.07253C1.49387 1.12299 1.38318 1.19695 1.28994 1.29019C1.10164 1.47849 0.99585 1.73388 0.99585 2.00019C0.99585 2.26649 1.10164 2.52188 1.28994 2.71019L4.38994 5.80019C2.97551 7.16171 1.8498 8.79417 1.07994 10.6002C1.02488 10.7264 0.996456 10.8625 0.996456 11.0002C0.996456 11.1378 1.02488 11.274 1.07994 11.4002C3.09994 16.0902 6.89994 19.0002 10.9999 19.0002C12.797 18.9878 14.5517 18.4527 16.0499 17.4602L19.2899 20.7102C19.3829 20.8039 19.4935 20.8783 19.6154 20.9291C19.7372 20.9798 19.8679 21.006 19.9999 21.006C20.132 21.006 20.2627 20.9798 20.3845 20.9291C20.5064 20.8783 20.617 20.8039 20.7099 20.7102C20.8037 20.6172 20.8781 20.5066 20.9288 20.3848C20.9796 20.2629 21.0057 20.1322 21.0057 20.0002C21.0057 19.8682 20.9796 19.7375 20.9288 19.6156C20.8781 19.4937 20.8037 19.3831 20.7099 19.2902L2.70994 1.29019ZM9.06994 10.4802L11.5199 12.9302C11.3509 12.9787 11.1758 13.0022 10.9999 13.0002C10.4695 13.0002 9.9608 12.7895 9.58573 12.4144C9.21066 12.0393 8.99994 11.5306 8.99994 11.0002C8.99789 10.8244 9.02147 10.6492 9.06994 10.4802ZM10.9999 17.0002C7.81994 17.0002 4.82994 14.7102 3.09994 11.0002C3.74603 9.57393 4.66301 8.28676 5.79994 7.21019L7.56994 9.00019C7.15419 9.75898 6.99568 10.6321 7.1182 11.4886C7.24072 12.3452 7.63766 13.1388 8.24947 13.7507C8.86128 14.3625 9.65497 14.7594 10.5115 14.8819C11.368 15.0044 12.2411 14.8459 12.9999 14.4302L14.5899 16.0002C13.501 16.6411 12.2634 16.9858 10.9999 17.0002Z" fill="#959595"/>
</svg>
