<svg width="12" height="7" viewBox="0 0 12 7" fill="none" xmlns="http://www.w3.org/2000/svg">
<path d="M10.9999 0.290792C10.8126 0.104542 10.5591 0 10.2949 0C10.0308 0 9.77731 0.104542 9.58995 0.290792L5.99995 3.83079L2.45995 0.290792C2.27259 0.104542 2.01913 0 1.75495 0C1.49076 0 1.23731 0.104542 1.04995 0.290792C0.95622 0.383755 0.881826 0.494356 0.831057 0.616216C0.780288 0.738075 0.75415 0.868781 0.75415 1.00079C0.75415 1.1328 0.780288 1.26351 0.831057 1.38537C0.881826 1.50723 0.95622 1.61783 1.04995 1.71079L5.28995 5.95079C5.38291 6.04452 5.49351 6.11891 5.61537 6.16968C5.73723 6.22045 5.86794 6.24659 5.99995 6.24659C6.13196 6.24659 6.26267 6.22045 6.38453 6.16968C6.50638 6.11891 6.61699 6.04452 6.70995 5.95079L10.9999 1.71079C11.0937 1.61783 11.1681 1.50723 11.2188 1.38537C11.2696 1.26351 11.2957 1.1328 11.2957 1.00079C11.2957 0.868781 11.2696 0.738075 11.2188 0.616216C11.1681 0.494356 11.0937 0.383755 10.9999 0.290792Z" fill="#616161"/>
</svg>
