<svg width="30" height="23" viewBox="0 0 30 23" fill="none" xmlns="http://www.w3.org/2000/svg">
<path fill-rule="evenodd" clip-rule="evenodd" d="M21.6668 17.6663V20.333H23.0002C26.6821 20.333 29.6668 17.3482 29.6668 13.6663C29.6668 10.313 27.1909 7.53784 23.9674 7.06933C22.8335 3.1405 19.2117 0.333008 15.0002 0.333008C11.8714 0.333008 9.01218 1.88644 7.29335 4.40004C3.3562 4.91096 0.333496 8.27803 0.333496 12.333C0.333496 16.7513 3.91522 20.333 8.3335 20.333V17.6663C5.38798 17.6663 3.00016 15.2785 3.00016 12.333C3.00016 9.46693 5.26595 7.11588 8.1197 7.00386L8.85438 6.97502L9.22205 6.33832C10.4059 4.28825 12.59 2.99967 15.0002 2.99967C18.2683 2.99967 21.0406 5.36803 21.5747 8.55455L21.7652 9.69058L22.9168 9.66719C22.9584 9.66648 22.9584 9.66648 23.0002 9.66634C25.2093 9.66634 27.0002 11.4572 27.0002 13.6663C27.0002 15.8755 25.2093 17.6663 23.0002 17.6663H21.6668ZM16.3336 22.9996V14.2185L19.3908 17.2757L21.2764 15.3901L15.0002 9.11398L8.72408 15.3901L10.6097 17.2757L13.6669 14.2185V22.9996H16.3336Z" fill="#757575"/>
</svg>
