<svg width="14" height="15" viewBox="0 0 14 15" fill="none" xmlns="http://www.w3.org/2000/svg">
<path fill-rule="evenodd" clip-rule="evenodd" d="M10 0.5C10.5288 0.5 10.9869 0.709494 11.3544 1.07991L13.4217 3.14718C13.7924 3.51786 14 3.97274 14 4.5C14 5.02385 13.794 5.56728 13.4217 5.93959L5.89021 13.4675C5.36661 14.0715 4.62438 14.4426 3.7564 14.5016H1H0V13.5016L0.00324765 10.6647C0.0669805 9.87582 0.43373 9.14229 0.981963 8.65991L8.56093 1.08101C8.93285 0.707181 9.47538 0.5 10 0.5ZM2.35157 10.1161C2.14601 10.2979 2.01885 10.5522 2 10.7452V12.5025L3.68578 12.504C3.95369 12.4851 4.20307 12.3604 4.42749 12.1054L8.80933 7.72354L6.77751 5.69172L2.35157 10.1161ZM8.19197 4.27776L10.2235 6.30933L11.9895 4.54339L9.95824 2.51212L8.19197 4.27776Z" fill="#757575"/>
</svg>
