<svg width="12" height="11" viewBox="0 0 12 11" fill="none" xmlns="http://www.w3.org/2000/svg">
<path d="M6.94004 5.50012L11.14 1.30679C11.2656 1.18125 11.3361 1.01099 11.3361 0.833457C11.3361 0.655923 11.2656 0.485659 11.14 0.360124C11.0145 0.234588 10.8442 0.164062 10.6667 0.164062C10.4892 0.164062 10.3189 0.234588 10.1934 0.360124L6.00004 4.56012L1.80671 0.360124C1.68117 0.234588 1.51091 0.164063 1.33337 0.164063C1.15584 0.164063 0.985576 0.234588 0.860041 0.360124C0.734505 0.485659 0.66398 0.655923 0.66398 0.833457C0.66398 1.01099 0.734505 1.18125 0.860041 1.30679L5.06004 5.50012L0.860041 9.69346C0.797555 9.75543 0.747959 9.82917 0.714113 9.91041C0.680267 9.99164 0.662842 10.0788 0.662842 10.1668C0.662842 10.2548 0.680267 10.3419 0.714113 10.4232C0.747959 10.5044 0.797555 10.5781 0.860041 10.6401C0.922016 10.7026 0.99575 10.7522 1.07699 10.7861C1.15823 10.8199 1.24537 10.8373 1.33337 10.8373C1.42138 10.8373 1.50852 10.8199 1.58976 10.7861C1.671 10.7522 1.74473 10.7026 1.80671 10.6401L6.00004 6.44012L10.1934 10.6401C10.2553 10.7026 10.3291 10.7522 10.4103 10.7861C10.4916 10.8199 10.5787 10.8373 10.6667 10.8373C10.7547 10.8373 10.8419 10.8199 10.9231 10.7861C11.0043 10.7522 11.0781 10.7026 11.14 10.6401C11.2025 10.5781 11.2521 10.5044 11.286 10.4232C11.3198 10.3419 11.3372 10.2548 11.3372 10.1668C11.3372 10.0788 11.3198 9.99164 11.286 9.91041C11.2521 9.82917 11.2025 9.75543 11.14 9.69346L6.94004 5.50012Z" fill="#616161"/>
</svg>
